<svg xmlns="http://www.w3.org/2000/svg" xmlns:xlink="http://www.w3.org/1999/xlink" width="51" height="68" viewBox="0 0 51 68"><defs><path id="yn0da" d="M1221.86 4587.15c.1.2.03.44-.13.6-9.03 8.2-16.1 19.53-18.24 24.94a.53.53 0 0 1-.39.33h-.1a.5.5 0 0 1-.38-.15l-13.3-13.36c-.1-.1 3.9-3.62 4.1-3.48l7.3 5.65a85.43 85.43 0 0 1 19.56-16.62c.14-.08 1.58 2.09 1.58 2.09zm8.15-12.92v33.83c0 13.84-24.08 24.42-25.1 24.87a.98.98 0 0 1-.41.08.97.97 0 0 1-.4-.08c-1.03-.45-25.1-11.03-25.1-24.87v-33.83a1 1 0 0 1 1-1c20.06 0 23.53-7.55 23.56-7.63.16-.36.53-.6.93-.6h.02c.41 0 .77.25.92.62.03.07 3.44 7.62 23.57 7.62a1 1 0 0 1 1 .99zm-5.55 31.86v-26.48a.78.78 0 0 0-.78-.78c-15.76 0-18.43-5.9-18.45-5.96a.78.78 0 0 0-.72-.49h-.02a.8.8 0 0 0-.72.48c-.03.06-2.75 5.97-18.45 5.97a.78.78 0 0 0-.8.78v26.48c0 10.83 18.87 19.12 19.66 19.47.1.04.2.06.32.06.1 0 .21-.02.31-.06.8-.35 19.66-8.64 19.66-19.47z"/><linearGradient id="yn0db" x1="1178.99" x2="1229.99" y1="4630.01" y2="4567.99" gradientUnits="userSpaceOnUse"><stop offset="0" stop-color="#8e5953"/><stop offset=".49" stop-color="#ce8880"/><stop offset="1" stop-color="#865550"/></linearGradient></defs><g><g transform="translate(-1179 -4565)"><use fill="url(#yn0db)" xlink:href="#yn0da"/></g></g></svg>