<svg xmlns="http://www.w3.org/2000/svg" xmlns:xlink="http://www.w3.org/1999/xlink" width="20" height="27" viewBox="0 0 20 27"><defs><path id="pvswa" d="M642 6580.77c0 6.68-8.95 16.5-9.33 16.91a.92.92 0 0 1-1.34 0c-.38-.41-9.33-10.23-9.33-16.91a9.9 9.9 0 0 1 10-9.77 9.9 9.9 0 0 1 10 9.77zm-4.97 0a4.98 4.98 0 0 0-5.03-4.92 4.98 4.98 0 0 0-5.03 4.92 4.98 4.98 0 0 0 5.03 4.91c2.77 0 5.03-2.2 5.03-4.91z"/></defs><g><g opacity=".9" transform="translate(-622 -6571)"><use fill="#fff" xlink:href="#pvswa"/></g></g></svg>