<svg xmlns="http://www.w3.org/2000/svg" xmlns:xlink="http://www.w3.org/1999/xlink" width="88" height="87" viewBox="0 0 88 87"><defs><path id="2bvva" d="M558.56 3422a43.5 43.5 0 0 1 43.57 43.44 43.5 43.5 0 0 1-43.57 43.44 43.5 43.5 0 0 1-43.56-43.44c0-24 19.5-43.44 43.56-43.44z"/><path id="2bvvc" d="M559.68 3487.28a1.16 1.16 0 0 1-1.15 1.14c-.3 0-.6-.12-.81-.33a1.15 1.15 0 1 1 1.96-.81zm28.35-12.3v7.7c0 .64-.52 1.15-1.15 1.15h-9.23v3.45c0 .63-.52 1.14-1.15 1.14h-13.1a1.15 1.15 0 1 1 0-2.3h5.63v-5.04a1.15 1.15 0 0 1 2.3 0v5.05h4.02v-3a1.14 1.14 0 0 1 0-.9v-1.27c0-3.9-2.66-7.25-6.46-8.16l-5.64-1.34-3.64 8.25c-.19.42-.6.69-1.06.69-.45 0-.86-.27-1.05-.69l-3.64-8.26-5.66 1.35a8.36 8.36 0 0 0-6.45 8.15v5.18h4.04v-5.05a1.15 1.15 0 0 1 2.3 0v5.05h5.14a1.15 1.15 0 1 1 0 2.3H540.6c-.64 0-1.15-.52-1.15-1.15v-3.45h-9.2c-.64 0-1.16-.51-1.16-1.14v-7.72c0-3.71 2.53-6.9 6.15-7.77l3.84-.91v-1.52a7.57 7.57 0 0 1-3.55-6.4v-4.28a7.6 7.6 0 0 1 13.3-5 10.14 10.14 0 1 1 19.47-.02 7.6 7.6 0 0 1 13.29 5.02v4.27c0 2.7-1.42 5.06-3.55 6.4v1.53l3.84.91a7.97 7.97 0 0 1 6.15 7.77zm-19.12-22.38a14.26 14.26 0 0 0 7.08 1.88h3.3v-.4a5.3 5.3 0 0 0-10.38-1.48zm-.22 5.57v.2a5.3 5.3 0 0 0 10.6 0v-1.6h-3.3c-2.53 0-5.03-.57-7.29-1.68v3.08zm-17.95-5.3h3.24a8.7 8.7 0 0 0 6.68-3.1c.36-.44.98-.54 1.47-.26l4.27 2.5v-.15a7.82 7.82 0 0 0-15.66 0zm-12.9 1.61h3.29c2.48 0 4.93-.65 7.08-1.88a5.3 5.3 0 0 0-10.37 1.49zm5.29 9.16a5.3 5.3 0 0 0 5.3-5.28v-3.28a16.56 16.56 0 0 1-7.3 1.7h-3.3v1.58a5.3 5.3 0 0 0 5.3 5.28zm-1.32 10.61l-2.38-5.69-3.65.87a5.68 5.68 0 0 0-4.39 5.54v6.57h2.3v-5.1a1.15 1.15 0 0 1 2.3 0v5.1h3.46v-.59c0-2.52.87-4.85 2.36-6.7zm3.06-6.96v-.1-1.46a7.59 7.59 0 0 1-3.48 0v1.55l1.74 4.17zm6.44 2.4c-.27-.1-.54-.2-.82-.26l-3.65-.87-1.12 2.68c.61-.28 1.26-.5 1.94-.67zm2.06-3.2a10.19 10.19 0 0 1-3.82-4.08 7.64 7.64 0 0 1-2.38 2.36v1.5l3.85.93c.84.2 1.63.53 2.35.98zm8.06 3.39v-2.37a10.15 10.15 0 0 1-5.75-.01v2.37l2.88 6.53zm4.96-11.79v-3.42l-4.63-2.7a11 11 0 0 1-7.78 3.2h-3.24v2.65a7.82 7.82 0 0 0 15.65.27zm-2.66 8.42v1.67a8.06 8.06 0 0 1 2.37-.98l3.85-.92v-1.5a7.66 7.66 0 0 1-2.37-2.35 10.18 10.18 0 0 1-3.85 4.08zm7.67 4.74l-1.13-2.69-3.64.87c-.29.07-.57.16-.84.27l3.64.87c.69.17 1.34.4 1.97.68zm2.58.2l1.76-4.2v-1.52a7.65 7.65 0 0 1-3.49 0v1.42a1.05 1.05 0 0 1 0 .16zm11.74 3.52c0-2.64-1.8-4.92-4.38-5.54l-3.66-.87-2.39 5.7a10.64 10.64 0 0 1 2.36 6.7v.58h3.47v-5.1a1.15 1.15 0 0 1 2.3 0v5.1h2.3zm-29.87-17.62a1.15 1.15 0 0 1-1.96.81 1.15 1.15 0 0 1 0-1.62 1.16 1.16 0 0 1 1.62 0c.22.21.34.51.34.81zm7.7 0a1.15 1.15 0 0 1-1.97.81 1.15 1.15 0 0 1 0-1.62 1.16 1.16 0 0 1 1.63 0c.21.21.34.51.34.81zm-2.78 4.68a3.17 3.17 0 0 1-4.49 0 1.15 1.15 0 0 1 0-1.63 1.15 1.15 0 0 1 1.63 0c.34.34.9.34 1.24 0a1.15 1.15 0 0 1 1.62 0c.45.45.45 1.18 0 1.63z"/><clipPath id="2bvvb"><use fill="#fff" xlink:href="#2bvva"/></clipPath><linearGradient id="2bvvd" x1="559.03" x2="558.09" y1="3488.42" y2="3441.77" gradientUnits="userSpaceOnUse"><stop offset="0" stop-color="#613c3b"/><stop offset=".52" stop-color="#bd7874"/><stop offset="1" stop-color="#654035"/></linearGradient></defs><g><g transform="translate(-515 -3422)"><use fill="#fff" xlink:href="#2bvva"/><use fill="#fff" fill-opacity="0" stroke="#dadada" stroke-miterlimit="50" stroke-width="2" clip-path="url(&quot;#2bvvb&quot;)" xlink:href="#2bvva"/></g><g transform="translate(-515 -3422)"><use fill="url(#2bvvd)" xlink:href="#2bvvc"/></g></g></svg>