<svg xmlns="http://www.w3.org/2000/svg" xmlns:xlink="http://www.w3.org/1999/xlink" width="88" height="87" viewBox="0 0 88 87"><defs><path id="b4p5a" d="M1115.88 3422a43.5 43.5 0 0 1 43.56 43.44 43.5 43.5 0 0 1-43.56 43.44 43.5 43.5 0 0 1-43.57-43.44c0-24 19.5-43.44 43.57-43.44z"/><path id="b4p5c" d="M1110.36 3445.01a1.1 1.1 0 1 1-2.2 0 1.1 1.1 0 0 1 2.2 0zm8.8 10.98a3.3 3.3 0 0 1-2.2 3.1v1.3a1.1 1.1 0 0 1-2.2 0v-1.29a4.56 4.56 0 0 1-2.01-1.43 1.1 1.1 0 0 1 .13-1.55 1.1 1.1 0 0 1 1.56.14c.45.53.96.83 1.43.83.6 0 1.1-.5 1.1-1.1 0-.6-.5-1.1-1.1-1.1a3.3 3.3 0 1 1-1.1-6.4v-1.28a1.1 1.1 0 0 1 2.2 0v1.28c.5.16 1.06.47 1.62 1a1.1 1.1 0 1 1-1.53 1.58c-.4-.37-.8-.57-1.2-.57a1.1 1.1 0 1 0 0 2.2 3.3 3.3 0 0 1 3.3 3.3zm24.9 1.76v14.64c0 1.47-.58 2.85-1.62 3.89l-6.87 6.85c-.2.2-.33.49-.33.77v.52h1.1c.61 0 1.1.5 1.1 1.1v6.92c0 .6-.49 1.1-1.1 1.1h-15.41c-.6 0-1.1-.5-1.1-1.1v-6.92c0-.6.5-1.1 1.1-1.1h1.1v-6.46c0-1.46.57-2.84 1.61-3.88l7.39-7.36a4.4 4.4 0 0 1 4.21-1.15v-7.82a4.4 4.4 0 0 1 8.81 0zm-8.82 28.87h-13.2v4.72h13.2zm6.6-28.87a2.2 2.2 0 0 0-4.4 0v9.17a4.35 4.35 0 0 1-.18 6l-5.47 5.46a1.1 1.1 0 0 1-1.56 0 1.1 1.1 0 0 1 0-1.55l5.47-5.46a2.18 2.18 0 0 0 0-3.1l-.07-.07-.02-.01a2.2 2.2 0 0 0-3.02.08l-7.39 7.36a3.26 3.26 0 0 0-.97 2.33v6.46h8.81v-.52c0-.86.35-1.71.97-2.32l6.87-6.86c.63-.62.97-1.45.97-2.33zm-29.94 27.77v6.92c0 .6-.5 1.1-1.1 1.1h-15.41c-.61 0-1.1-.5-1.1-1.1v-6.92c0-.6.49-1.1 1.1-1.1h1.1v-.52c0-.28-.12-.57-.32-.77l-6.88-6.85a5.44 5.44 0 0 1-1.61-3.89v-14.64a4.4 4.4 0 0 1 8.8 0v7.82a4.4 4.4 0 0 1 4.22 1.15l7.39 7.36a5.44 5.44 0 0 1 1.61 3.88v6.46h1.1c.6 0 1.1.5 1.1 1.1zm-14.18-3.94c.62.61.97 1.46.97 2.32v.52h8.8v-6.46c0-.88-.34-1.7-.96-2.33l-7.38-7.36a2.2 2.2 0 0 0-3.03-.08l-.02.01-.07.07a2.18 2.18 0 0 0 0 3.1l5.5 5.5a1.1 1.1 0 0 1-1.56 1.55l-5.5-5.5a4.35 4.35 0 0 1-.18-6v-9.17a2.2 2.2 0 0 0-4.4 0v14.64c0 .88.34 1.71.96 2.33zm11.98 5.04h-13.21v4.72h13.21zm22.68-32.82a16.5 16.5 0 0 1-33.03 0 16.51 16.51 0 0 1 33.03 0zm-2.2 0a14.3 14.3 0 0 0-28.63 0 14.3 14.3 0 0 0 28.63 0zm-2.2 0a12.1 12.1 0 1 1-22.8-5.7 1.1 1.1 0 0 1 1.95 1.03 9.87 9.87 0 0 0 8.74 14.55 9.9 9.9 0 0 0 9.9-9.88c0-3-1.34-5.81-3.68-7.7a10.03 10.03 0 0 0-8.44-1.95 1.1 1.1 0 1 1-.46-2.15c3.66-.78 7.41.09 10.28 2.4 2.86 2.3 4.5 5.73 4.5 9.4z"/><clipPath id="b4p5b"><use fill="#fff" xlink:href="#b4p5a"/></clipPath><linearGradient id="b4p5d" x1="1116.05" x2="1115.68" y1="3493.53" y2="3437.33" gradientUnits="userSpaceOnUse"><stop offset="0" stop-color="#613c3b"/><stop offset=".52" stop-color="#bd7874"/><stop offset="1" stop-color="#654035"/></linearGradient></defs><g><g transform="translate(-1072 -3422)"><use fill="#fff" xlink:href="#b4p5a"/><use fill="#fff" fill-opacity="0" stroke="#dadada" stroke-miterlimit="50" stroke-width="2" clip-path="url(&quot;#b4p5b&quot;)" xlink:href="#b4p5a"/></g><g transform="translate(-1072 -3422)"><use fill="url(#b4p5d)" xlink:href="#b4p5c"/></g></g></svg>