<svg xmlns="http://www.w3.org/2000/svg" xmlns:xlink="http://www.w3.org/1999/xlink" width="88" height="87" viewBox="0 0 88 87"><defs><path id="4cl2a" d="M839.12 3422a43.5 43.5 0 0 1 43.57 43.44 43.5 43.5 0 0 1-43.57 43.44 43.5 43.5 0 0 1-43.56-43.44c0-24 19.5-43.44 43.56-43.44z"/><path id="4cl2c" d="M832.61 3445.02c0 .57-.46 1.02-1.02 1.02H818.1a1.02 1.02 0 1 1 0-2.04h13.48c.56 0 1.02.46 1.02 1.02zm0 4.1c0 .56-.46 1.02-1.02 1.02H818.1a1.02 1.02 0 1 1 0-2.05h13.48c.56 0 1.02.46 1.02 1.02zm-6.72 4.09c0 .56-.46 1.02-1.03 1.02h-6.75a1.02 1.02 0 1 1 0-2.05h6.75c.57 0 1.03.46 1.03 1.03zm4.36 0c0 .56-.46 1.02-1.02 1.02h-.01a1.02 1.02 0 1 1 0-2.05c.57 0 1.03.46 1.03 1.02zm29.14-8.19c0 .57-.46 1.02-1.03 1.02H844.9a1.02 1.02 0 1 1 0-2.04h13.47c.57 0 1.03.46 1.03 1.02zm-6.72 4.1c0 .56-.46 1.02-1.03 1.02h-6.75a1.02 1.02 0 1 1 0-2.05h6.75c.57 0 1.03.46 1.03 1.02zm4.36 0c0 .56-.46 1.02-1.03 1.02a1.02 1.02 0 1 1 0-2.05c.57 0 1.03.46 1.03 1.02zm-29.24 23.05a1.03 1.03 0 0 1-1.75.73 1.03 1.03 0 0 1 1.45-1.45c.19.2.3.45.3.72zm5.24 0a1.03 1.03 0 0 1-1.03 1.03 1.03 1.03 0 0 1-1.03-1.03 1.03 1.03 0 0 1 1.75-.72c.2.2.3.45.3.72zm-1.96 3.36a2.4 2.4 0 0 1-3.4 0 1.03 1.03 0 0 1 1.45-1.45c.14.13.36.13.5 0a1.03 1.03 0 0 1 1.45 1.45zm15.36-8.02c0 .27-.1.54-.3.73-.19.19-.45.3-.72.3a1.03 1.03 0 0 1-.73-1.75 1.04 1.04 0 0 1 1.45 0c.2.2.3.45.3.72zm3.28 3.36a2.39 2.39 0 0 1-3.4 0 1.03 1.03 0 0 1 1.45-1.45.35.35 0 0 0 .5 0c.4-.4 1.05-.4 1.45 0 .4.4.4 1.05 0 1.45zm15.05-27.3v6.95a3.7 3.7 0 0 1-3.7 3.68h-7.53l-2.64 2.64a7.8 7.8 0 0 1 4.94 7.24v2.8c0 2.88-1.58 5.4-3.92 6.74v.57c0 .59.42 1.09 1 1.2l3.76.69a7.23 7.23 0 0 1 5.93 7.1v8.05c0 .57-.46 1.03-1.02 1.03H815.5c-.56 0-1.02-.46-1.02-1.03v-3.2c0-3.55 2.54-6.6 6.04-7.24l3.86-.71c.6-.11 1.04-.63 1.04-1.25v-.6a7.94 7.94 0 0 1-4-6.88v-2.87c0-3.3 2.02-6.13 4.9-7.33l-2.88-2.85h-7.53a3.7 3.7 0 0 1-3.69-3.69v-11.04a3.7 3.7 0 0 1 3.7-3.69h17.84a3.7 3.7 0 0 1 3.7 3.69v11.04a3.7 3.7 0 0 1-3.7 3.69h-4.71v2.25h.32a7.96 7.96 0 0 1 7.96 7.93v2.87a7.94 7.94 0 0 1-4 6.89v.6c0 .54.34 1 .84 1.19a7.25 7.25 0 0 1 5.2-3.95l3.76-.7c.58-.1 1-.6 1-1.19v-.57a7.78 7.78 0 0 1-3.92-6.74v-2.8a7.8 7.8 0 0 1 7.71-7.78v-2.1h-4.72a3.7 3.7 0 0 1-3.69-3.68v-6.95a3.7 3.7 0 0 1 3.7-3.69h17.84a3.7 3.7 0 0 1 3.7 3.69zM827 3458.94v-1.67c0-.56.46-1.02 1.03-1.02h5.74c.91 0 1.65-.73 1.65-1.64v-11.04c0-.9-.74-1.64-1.65-1.64h-17.85c-.9 0-1.64.73-1.64 1.64v11.04c0 .9.74 1.64 1.64 1.64h7.96c.27 0 .53.1.72.3zm-3.53 9.54v.23h2.37c1.95 0 3.8-.85 5.05-2.35.32-.38.88-.48 1.3-.22l3.08 1.8a5.91 5.91 0 0 0-11.8.54zm5.91 8.77a5.9 5.9 0 0 0 5.91-5.9v-1.03l-3.42-2a8.63 8.63 0 0 1-6.03 2.44h-2.37v.6a5.9 5.9 0 0 0 5.91 5.89zm1.91 1.8a7.98 7.98 0 0 1-3.82 0 3.3 3.3 0 0 1-.49 1.52l2.4 3.07 2.4-3.07a3.3 3.3 0 0 1-.49-1.51zm10.94 11.16v-2.17a5.33 5.33 0 0 0-4.37-5.24l-3.86-.7c-.23-.05-.45-.12-.66-.2l-3.15 4.04a1.03 1.03 0 0 1-1.62 0l-3.15-4.04c-.2.08-.43.15-.66.2l-3.85.7a5.33 5.33 0 0 0-4.37 5.24v2.17zm6.65-8.33a1.03 1.03 0 0 1-1.7 0l-3.1-4.64c-.18.07-.37.12-.57.16l-3.76.7a5.2 5.2 0 0 0-3.46 2.33l1.94.36c3.5.65 6.05 3.7 6.05 7.25v2.17h10.31v-4.34a1.02 1.02 0 0 1 2.06 0v4.34h3.9v-7.03c0-2.5-1.79-4.64-4.25-5.09l-3.76-.7c-.2-.03-.4-.08-.58-.15zm-.85-2.42l2.34-3.53a3.24 3.24 0 0 1-.5-1.49 7.8 7.8 0 0 1-3.7 0 3.24 3.24 0 0 1-.49 1.5zm5.75-12.73h-2.3l-.19-.01.08.07a1.03 1.03 0 0 1 0 1.45 1.04 1.04 0 0 1-1.45 0 1.03 1.03 0 0 1 .23-1.62 8.46 8.46 0 0 1-4.56-2.28l-3.32 1.95v.6a5.75 5.75 0 0 0 11.5 0zm-5.75-8.39a5.75 5.75 0 0 0-5.75 5.57l2.98-1.74c.16-.1.34-.15.52-.15.3 0 .59.13.79.37a6.41 6.41 0 0 0 4.92 2.29h2.29v-.6a5.75 5.75 0 0 0-5.75-5.74zm14.68-14.77c0-.9-.74-1.64-1.65-1.64h-17.85c-.9 0-1.64.73-1.64 1.64v6.95c0 .9.74 1.64 1.64 1.64h5.75c.56 0 1.02.46 1.02 1.02v1.67l2.4-2.4c.2-.18.46-.3.73-.3h7.95c.9 0 1.65-.73 1.65-1.63z"/><clipPath id="4cl2b"><use fill="#fff" xlink:href="#4cl2a"/></clipPath><linearGradient id="4cl2d" x1="838.76" x2="838.23" y1="3492.26" y2="3439.88" gradientUnits="userSpaceOnUse"><stop offset="0" stop-color="#613c3b"/><stop offset=".52" stop-color="#bd7874"/><stop offset="1" stop-color="#654035"/></linearGradient></defs><g><g transform="translate(-795 -3422)"><use fill="#fff" xlink:href="#4cl2a"/><use fill="#fff" fill-opacity="0" stroke="#dadada" stroke-miterlimit="50" stroke-width="2" clip-path="url(&quot;#4cl2b&quot;)" xlink:href="#4cl2a"/></g><g transform="translate(-795 -3422)"><use fill="url(#4cl2d)" xlink:href="#4cl2c"/></g></g></svg>